# xmcd
#
# Track frame offsets: 
#        150
#        7256
#        30111
#        38577
#        61354
#        66839
#        71309
#        99493
#        108285
#        126884
#        131979
#        137537
#        166546
#        176343
#        189758
#        195688
#        202095
#        228089
#        248072
#        258897
#        265324
#        270972
#        304294
#        310812
#        323107
#
# Disc length: 4396 seconds
#
# Revision: 0
# Processed by: cddbd v1.5.2PL0 Copyright (c) Steve Scherf et al.
# Submitted via: ExactAudioCopy v1.0b1
#
DISCID=4d112a19
DTITLE=Hank Williams - The Complete Mother's Best CD9
DYEAR=2010
DGENRE=Country
TTITLE0=Introduction
TTITLE1=Cold, Cold Heart
TTITLE2=Jerry Rivers and the Drifting Cowboys: Dance All Night
TTITLE3=The Old Country Church
TTITLE4=Closing
TTITLE5=Introduction
TTITLE6=Move It on Over
TTITLE7=Sammy Pruett and the Drifting Cowboys: The Darktown Strutters’
TTITLE7=Ball
TTITLE8=Thy Burdens Are Greater than Mine
TTITLE9=Closing
TTITLE10=Introduction
TTITLE11=Faded Love and Winter Roses
TTITLE12=Jerry Rivers and the Drifting Cowboys: Fire on the Mountain
TTITLE13=I Heard My Savior Calling Me
TTITLE14=Closing
TTITLE15=Introduction
TTITLE16=Just When I Needed You
TTITLE17=Johnnie and Jack: I Can’t Tell My Heart That
TTITLE18=Farther Along
TTITLE19=Closing
TTITLE20=Introduction
TTITLE21=There’s Nothing as Sweet as My Baby
TTITLE22=Jerry Rivers and the Drifting Cowboys: Turkey in the Straw
TTITLE23=Wait for the Light to Shine
TTITLE24=Closing
EXTD=
EXTT0=
EXTT1=
EXTT2=
EXTT3=
EXTT4=
EXTT5=
EXTT6=
EXTT7=
EXTT8=
EXTT9=
EXTT10=
EXTT11=
EXTT12=
EXTT13=
EXTT14=
EXTT15=
EXTT16=
EXTT17=
EXTT18=
EXTT19=
EXTT20=
EXTT21=
EXTT22=
EXTT23=
EXTT24=
PLAYORDER=
